<svg width="42" height="42" viewBox="0 0 42 42" fill="none" xmlns="http://www.w3.org/2000/svg">
<path d="M7 19.75C7 17.8644 7 16.9216 7.58579 16.3358C8.17157 15.75 9.11438 15.75 11 15.75H31C32.8856 15.75 33.8284 15.75 34.4142 16.3358C35 16.9216 35 17.8644 35 19.75V30.75C35 33.5784 35 34.9926 34.1213 35.8713C33.2426 36.75 31.8284 36.75 29 36.75H13C10.1716 36.75 8.75736 36.75 7.87868 35.8713C7 34.9926 7 33.5784 7 30.75V19.75Z" stroke="#BABABA" stroke-width="2"/>
<path d="M28 14V12.25C28 10.3887 28 9.45808 27.7553 8.70492C27.2607 7.18273 26.0673 5.98931 24.5451 5.49472C23.7919 5.25 22.8613 5.25 21 5.25V5.25C19.1387 5.25 18.2081 5.25 17.4549 5.49472C15.9327 5.98931 14.7393 7.18273 14.2447 8.70492C14 9.45808 14 10.3887 14 12.25V14" stroke="#BABABA" stroke-width="2" stroke-linecap="round"/>
<circle cx="21" cy="26.25" r="3.5" fill="#BABABA"/>
</svg>
